<?xml version="1.0" encoding="UTF-8" standalone="no"?>
<svg
   xmlns:svg="http://www.w3.org/2000/svg"
   xmlns="http://www.w3.org/2000/svg"
   version="1.0"
   width="1000"
   height="1000"
   id="svg2">
  <defs
     id="defs4" />
  <path
       d="M 499.40625,9.0625 C 229.28929,9.0625 9.0625,229.28929 9.0625,499.40625 C 9.0625,769.52321 229.28929,989.71875 499.40625,989.71875 C 769.52321,989.71875 989.71875,769.52321 989.71875,499.40625 C 989.71875,229.28929 769.52321,9.0625 499.40625,9.0625 z M 499.40625,109.0625 C 589.64448,109.0625 672.61078,139.48007 738.625,190.65625 C 555.9778,373.31113 373.33575,555.97117 190.6875,738.625 C 139.5042,672.60832 109.0625,589.65141 109.0625,499.40625 C 109.0625,283.39557 283.39557,109.0625 499.40625,109.0625 z M 809.15625,261.5625 C 859.68966,327.35982 889.71875,409.78919 889.71875,499.40625 C 889.71875,715.41693 715.41693,889.71875 499.40625,889.71875 C 409.78032,889.71875 327.33179,859.69874 261.53125,809.15625 C 444.06474,626.61682 626.61979,444.09896 809.15625,261.5625 z "
       style="fill:#818282;fill-opacity:0.24210528;fill-rule:evenodd;stroke:none"
       id="path2760" />
    <text
       x="495.65106"
       y="432.7139"
       style="font-size:88.95471191px;font-style:normal;font-weight:normal;fill:black;fill-opacity:0.82631579;stroke:none;font-family:Courier New"
       id="text3673"
       xml:space="preserve"><tspan
         x="495.65106"
         y="432.7139"
         style="font-size:200.14810181px;font-variant:normal;font-weight:bold;font-stretch:normal;text-align:center;line-height:100%;writing-mode:lr-tb;text-anchor:middle;fill:black;fill-opacity:0.82631579;font-family:Courier New"
         id="tspan3675">BRAK</tspan><tspan
         x="495.65106"
         y="632.862"
         style="font-size:200.14810181px;font-variant:normal;font-weight:bold;font-stretch:normal;text-align:center;line-height:100%;writing-mode:lr-tb;text-anchor:middle;fill:black;fill-opacity:0.82631579;font-family:Courier New"
         id="tspan3677">ZDJĘCIA</tspan></text>
</svg>
